<svg width="93" height="93" viewBox="0 0 93 93" fill="none" xmlns="http://www.w3.org/2000/svg">
<path d="M46.1934 0C58.9492 0 70.5019 5.17188 78.8594 13.5293C87.2168 21.8867 92.3906 33.4375 92.3906 46.1934C92.3906 58.9492 87.2168 70.5019 78.8594 78.8594C70.5019 87.2168 58.9492 92.3906 46.1934 92.3906C33.4531 92.3906 21.9004 87.2129 13.541 78.8496C5.17383 70.502 0 58.9492 0 46.1934C0 33.4375 5.17188 21.8867 13.5293 13.5293C21.8867 5.17188 33.4375 0 46.1934 0Z" fill="#DDDCDC"/>
<path d="M46.1935 4.19531C57.791 4.19531 68.2945 8.89749 75.8929 16.4959C83.4914 24.0944 88.1953 34.5961 88.1953 46.1935C88.1953 57.791 83.4914 68.2945 75.8929 75.8929C68.2945 83.4914 57.791 88.1953 46.1935 88.1953C34.6103 88.1953 24.1068 83.4878 16.5066 75.8841C8.89927 68.2945 4.19531 57.791 4.19531 46.1935C4.19531 34.5961 8.89749 24.0944 16.4959 16.4959C24.0944 8.89749 34.5961 4.19531 46.1935 4.19531Z" fill="white"/>
<path d="M46.1934 3.92773C62.6777 3.92773 76.9551 13.3594 83.9219 27.1191H8.46875C15.4375 13.3594 29.7148 3.92773 46.1934 3.92773Z" fill="#FF9933"/>
<path d="M7.98828 64.2891H84.4023C77.623 78.582 63.0664 88.4629 46.1934 88.4629C29.3242 88.4629 14.7695 78.582 7.98828 64.2891Z" fill="#128807"/>
<path fill-rule="evenodd" clip-rule="evenodd" d="M46.1934 31.332C54.4062 31.332 61.0625 37.9883 61.0625 46.1973C61.0625 54.4082 54.4062 61.0645 46.1934 61.0645C37.9844 61.0645 31.3281 54.4082 31.3281 46.1973C31.3281 37.9883 37.9844 31.332 46.1934 31.332ZM48.793 46.0645C48.7852 45.9258 48.7676 45.7891 48.7402 45.6563L51.3379 45.2813L58.7617 42.832L51.1055 44.4219L48.6719 45.3965C48.6289 45.2637 48.5762 45.1367 48.5137 45.0156L50.9238 43.9824L57.459 39.6934C57.2832 39.3887 57.0977 39.0918 56.8984 38.8047L56.9121 38.7949C56.627 39.0156 56.2187 38.959 55.998 38.6758C55.8962 38.5407 55.8506 38.3714 55.871 38.2035C55.8914 38.0356 55.9762 37.8821 56.1074 37.7754C55.8804 37.5074 55.6419 37.2493 55.3926 37.002V36.998L49.5586 42.2031L47.9395 44.2676C47.8359 44.1738 47.7246 44.0898 47.6113 44.0137L49.1816 41.9141L52.6992 34.9316L48.4121 41.4688L47.3789 43.8809C47.2578 43.8184 47.1289 43.7656 46.9941 43.7227L47.9727 41.2891L49.5625 33.6328L47.1094 41.0566L46.7383 43.6543C46.6055 43.627 46.4687 43.6094 46.3301 43.5996L46.6426 40.9941L46.1934 33.1914C45.8418 33.1914 45.4922 33.209 45.1445 33.2344L45.1426 33.2148C45.1895 33.5723 44.9375 33.8984 44.582 33.9453C44.4137 33.9675 44.2435 33.9228 44.1077 33.821C43.9719 33.7191 43.8813 33.5682 43.8555 33.4004C43.1562 33.5273 42.4785 33.7109 41.8242 33.9453C41.9512 34.2734 41.793 34.6484 41.4648 34.7813C41.1406 34.9141 40.7656 34.7656 40.623 34.4434C40.3047 34.5957 39.9922 34.7617 39.6895 34.9355L43.9785 41.4688L45.0117 43.8809C45.1328 43.8184 45.2598 43.7656 45.3926 43.7227L44.418 41.2891L42.8281 33.6328L45.2793 41.0566L45.6523 43.6543C45.7852 43.627 45.9219 43.6094 46.0605 43.5996L45.748 40.9941L46.1934 33.1914C46.5469 33.1914 46.8984 33.207 47.2461 33.2344L47.248 33.2148C47.226 33.386 47.2725 33.5589 47.3776 33.6958C47.4826 33.8326 47.6376 33.9224 47.8086 33.9453C48.1582 33.9922 48.4824 33.748 48.5352 33.4004C49.2344 33.5273 49.9121 33.7109 50.5684 33.9453C50.4414 34.2734 50.5996 34.6484 50.9238 34.7813C51.252 34.9141 51.625 34.7656 51.7676 34.4434C52.4082 34.7461 53.0137 35.0957 53.5898 35.4961L53.5996 35.4824C53.3789 35.7676 53.4355 36.1758 53.7187 36.3945C53.8562 36.4988 54.0292 36.5448 54.2002 36.5225C54.3713 36.5002 54.5267 36.4114 54.6328 36.2754L54.6191 36.291C54.8854 36.5159 55.1421 36.7518 55.3887 36.998H55.3926L50.1895 42.8359L48.127 44.4551C48.2207 44.5586 48.3027 44.666 48.377 44.7832L50.4785 43.209L57.459 39.6934C57.6328 39.998 57.7988 40.3086 57.9512 40.627C57.7952 40.6944 57.6722 40.8206 57.6089 40.9783C57.5456 41.136 57.5472 41.3122 57.6133 41.4688C57.7461 41.7949 58.1172 41.9531 58.4492 41.8262C58.6816 42.4785 58.8652 43.1602 58.9922 43.8594C58.8248 43.8857 58.6743 43.9764 58.5728 44.1122C58.4714 44.2479 58.427 44.4179 58.4492 44.5859C58.4941 44.9414 58.8223 45.1914 59.1777 45.1445L59.1602 45.1484C59.1855 45.4941 59.2031 45.8438 59.2031 46.1973L51.4004 45.752L48.793 46.0645ZM39.6895 34.9355L43.207 41.9141L44.7812 44.0137C44.6641 44.0898 44.5547 44.1738 44.4531 44.2676L42.832 42.2031L36.998 37.002C37.2461 36.7539 37.5059 36.5156 37.7715 36.2871C37.9922 36.5586 38.3926 36.6094 38.6719 36.3945C38.7397 36.3426 38.7967 36.2778 38.8395 36.2039C38.8823 36.1299 38.9102 36.0483 38.9214 35.9636C38.9327 35.8789 38.9271 35.7928 38.9051 35.7102C38.883 35.6277 38.8449 35.5503 38.793 35.4824L38.8027 35.4961C39.0918 35.2969 39.3867 35.1113 39.6895 34.9355ZM36.998 37.002L42.2012 42.8359L44.2637 44.4551C44.1719 44.5586 44.0879 44.666 44.0098 44.7832L41.9102 43.209L34.9297 39.6934C34.7559 39.9961 34.5918 40.3086 34.4414 40.623C34.5962 40.6929 34.7178 40.8201 34.7805 40.9779C34.8432 41.1357 34.842 41.3118 34.7773 41.4688C34.6445 41.7949 34.2695 41.9531 33.9434 41.8262C33.8242 42.1582 33.7227 42.4922 33.6309 42.832L41.0527 45.2813L43.6523 45.6563C43.623 45.7891 43.6055 45.9258 43.5957 46.0645L40.9922 45.752L33.1875 46.1973C33.1875 46.5508 33.207 46.9023 33.2305 47.2481L33.2129 47.252C33.5684 47.2031 33.8965 47.4531 33.9434 47.8125C33.9883 48.1621 33.7441 48.4863 33.3984 48.5391C33.5254 49.2383 33.707 49.9121 33.9434 50.5684C34.2695 50.4434 34.6445 50.6016 34.7773 50.9258C34.9102 51.252 34.7617 51.6289 34.4414 51.7715C34.5918 52.0898 34.7559 52.3984 34.9297 52.7012L41.9102 49.1855L44.0098 47.6133C44.0879 47.7285 44.1719 47.8398 44.2637 47.9414L42.2012 49.5625L36.9961 55.3965H36.998C37.2461 55.6426 37.5059 55.8809 37.7715 56.1113C37.9922 55.8379 38.3926 55.7852 38.6719 56.002C38.957 56.2207 39.0117 56.6309 38.793 56.9141L38.8027 56.9023C39.0898 57.1035 39.3867 57.2891 39.6895 57.4648L43.9785 50.9258L45.0117 48.5137C45.1328 48.5781 45.2598 48.6309 45.3926 48.6738L44.418 51.1094L42.8281 58.7637C43.166 58.8535 43.5098 58.9316 43.8555 58.9961C43.8809 58.828 43.9712 58.6765 44.1071 58.5743C44.2429 58.472 44.4134 58.4271 44.582 58.4492C44.9316 58.498 45.1797 58.8145 45.1426 59.1621C45.4883 59.1914 45.8379 59.207 46.1934 59.207L46.6426 51.4004L46.3301 48.7949C46.4687 48.7891 46.6055 48.7695 46.7383 48.7422L47.1094 51.3398L49.5625 58.7637L47.9727 51.1094L46.9941 48.6738C47.1289 48.6309 47.2578 48.5762 47.3789 48.5137L48.4121 50.9258L52.6992 57.4648C53.0019 57.2891 53.3027 57.0996 53.5898 56.9023L53.5996 56.9141C53.3789 56.6309 53.4355 56.2207 53.7187 56.002C53.998 55.7852 54.4004 55.8379 54.6172 56.1113C54.8848 55.8848 55.1445 55.6426 55.3926 55.3965L50.1895 49.5625L48.127 47.9414C48.2207 47.8398 48.3027 47.7285 48.377 47.6133L50.4785 49.1855L57.4629 52.7012L50.9238 48.4121L48.5098 47.3809C48.5762 47.2578 48.6289 47.1309 48.6719 46.998L51.1055 47.9766L58.7578 49.5645C58.8477 49.2285 58.9277 48.8887 58.9922 48.5391C58.8248 48.5127 58.6743 48.422 58.5728 48.2863C58.4714 48.1505 58.427 47.9805 58.4492 47.8125C58.46 47.7278 58.4874 47.646 58.5299 47.5719C58.5724 47.4978 58.6292 47.4328 58.6969 47.3807C58.7646 47.3286 58.8419 47.2904 58.9245 47.2683C59.007 47.2462 59.0931 47.2407 59.1777 47.252L59.1602 47.2481C59.1875 46.9023 59.2031 46.5527 59.2031 46.1973L51.4004 46.6426L48.793 46.3301C48.7852 46.4727 48.7676 46.6094 48.7402 46.7422L51.3379 47.1133L58.7578 49.5645C58.666 49.9063 58.5664 50.2402 58.4492 50.5684C58.1172 50.4434 57.7461 50.6016 57.6133 50.9258C57.4766 51.2578 57.6289 51.6309 57.9512 51.7715C57.6517 52.4066 57.2996 53.0155 56.8984 53.5918L56.9121 53.6016C56.8442 53.5494 56.7666 53.5112 56.6839 53.489C56.6011 53.4669 56.5149 53.4613 56.43 53.4725C56.3451 53.4838 56.2632 53.5117 56.1891 53.5546C56.115 53.5975 56.0501 53.6546 55.998 53.7227C55.7832 54 55.8359 54.4023 56.1074 54.6191C55.8789 54.8871 55.6404 55.1464 55.3926 55.3965L49.5586 50.1934L47.9395 48.1309C47.8359 48.2207 47.7246 48.3066 47.6113 48.3809L49.1816 50.4805L52.6992 57.4648C52.3965 57.6387 52.0859 57.8027 51.7676 57.9531C51.6289 57.6328 51.2539 57.4805 50.9238 57.6172C50.5918 57.752 50.4355 58.1328 50.5742 58.4648L50.5684 58.4512C49.9069 58.6889 49.2268 58.8712 48.5352 58.9961C48.5098 58.828 48.4194 58.6765 48.2836 58.5743C48.1477 58.472 47.9772 58.4271 47.8086 58.4492C47.459 58.498 47.2109 58.8145 47.248 59.1621C46.9023 59.1875 46.5469 59.207 46.1934 59.207L45.748 51.4004L46.0605 48.7949C45.9219 48.7891 45.7852 48.7695 45.6523 48.7422L45.2793 51.3398L42.8281 58.7637C42.4863 58.6738 42.1484 58.5684 41.8242 58.4512C41.8865 58.2929 41.8837 58.1164 41.8163 57.9601C41.749 57.8039 41.6227 57.6806 41.4648 57.6172C41.1367 57.4805 40.7617 57.6328 40.6211 57.9531C40.304 57.8032 39.9932 57.6403 39.6895 57.4648L43.207 50.4805L44.7812 48.3809C44.6641 48.3066 44.5547 48.2207 44.4531 48.1309L42.832 50.1934L36.9961 55.3965V55.3926C36.748 55.1445 36.5098 54.8848 36.2832 54.6191C36.5566 54.4023 36.6055 54 36.3926 53.7227C36.3408 53.6547 36.276 53.5976 36.2021 53.5547C36.1281 53.5118 36.0464 53.4839 35.9617 53.4726C35.8769 53.4614 35.7908 53.467 35.7082 53.4891C35.6256 53.5112 35.5482 53.5494 35.4805 53.6016L35.4922 53.5918C35.2949 53.3047 35.1055 53.0059 34.9297 52.7012L41.4648 48.4121L43.877 47.3809C43.8164 47.2578 43.7637 47.1309 43.7188 46.998L41.2852 47.9766L33.6309 49.5645L41.0527 47.1133L43.6523 46.7422C43.623 46.6094 43.6055 46.4727 43.5957 46.3301L40.9922 46.6426L33.1875 46.1973C33.1875 45.8418 33.2031 45.4941 33.2305 45.1484L33.2129 45.1445C33.5684 45.1914 33.8965 44.9414 33.9434 44.5859C33.9883 44.2363 33.7441 43.9121 33.3984 43.8594C33.4629 43.5117 33.541 43.1699 33.6309 42.832L41.2852 44.4219L43.7188 45.3965C43.7637 45.2637 43.8164 45.1367 43.877 45.0156L41.4648 43.9824L34.9297 39.6934C35.1055 39.3887 35.291 39.0918 35.4922 38.8047L35.4805 38.7949C35.7637 39.0156 36.1719 38.959 36.3926 38.6758C36.6055 38.3965 36.5566 37.9941 36.2832 37.7754C36.5137 37.5098 36.752 37.25 36.998 37.002Z" fill="#000088"/>
</svg>
